<mxfile host="app.diagrams.net" agent="Mozilla/5.0 (Windows NT 10.0; Win64; x64) AppleWebKit/537.36 (KHTML, like Gecko) Chrome/140.0.0.0 Safari/537.36" version="28.2.5">
  <diagram name="Página-1" id="3Jno4hc57wPuwC-LTjjj">
    <mxGraphModel dx="1416" dy="735" grid="0" gridSize="10" guides="1" tooltips="1" connect="1" arrows="1" fold="1" page="1" pageScale="1" pageWidth="1169" pageHeight="827" math="0" shadow="0">
      <root>
        <mxCell id="0" />
        <mxCell id="1" parent="0" />
        <mxCell id="NvnObT9T2hqpzoCI4MVh-2" value="" style="edgeStyle=orthogonalEdgeStyle;rounded=0;orthogonalLoop=1;jettySize=auto;html=1;fontFamily=Helvetica;fontSize=12;fontColor=default;endArrow=classicThin;endFill=1;" edge="1" parent="1" source="NvnObT9T2hqpzoCI4MVh-3" target="NvnObT9T2hqpzoCI4MVh-8">
          <mxGeometry relative="1" as="geometry">
            <Array as="points">
              <mxPoint x="195" y="40" />
            </Array>
          </mxGeometry>
        </mxCell>
        <mxCell id="NvnObT9T2hqpzoCI4MVh-3" value="Postagem Inicial" style="whiteSpace=wrap;html=1;aspect=fixed;align=center;verticalAlign=middle;fontFamily=Helvetica;fontSize=12;fillColor=none;rounded=1;glass=0;rotation=0;" vertex="1" parent="1">
          <mxGeometry x="155" y="69" width="70" height="30" as="geometry" />
        </mxCell>
        <mxCell id="NvnObT9T2hqpzoCI4MVh-4" style="edgeStyle=orthogonalEdgeStyle;rounded=0;orthogonalLoop=1;jettySize=auto;html=1;exitX=0;exitY=0.75;exitDx=0;exitDy=0;entryX=0.25;entryY=1;entryDx=0;entryDy=0;endArrow=classicThin;endFill=1;" edge="1" parent="1" source="NvnObT9T2hqpzoCI4MVh-5" target="NvnObT9T2hqpzoCI4MVh-8">
          <mxGeometry relative="1" as="geometry" />
        </mxCell>
        <mxCell id="NvnObT9T2hqpzoCI4MVh-5" value="Revisão" style="whiteSpace=wrap;html=1;aspect=fixed;align=center;verticalAlign=middle;fontFamily=Helvetica;fontSize=12;fillColor=none;rounded=1;glass=0;rotation=0;" vertex="1" parent="1">
          <mxGeometry x="315" y="69" width="70" height="30" as="geometry" />
        </mxCell>
        <mxCell id="NvnObT9T2hqpzoCI4MVh-6" style="edgeStyle=orthogonalEdgeStyle;rounded=0;orthogonalLoop=1;jettySize=auto;html=1;exitX=0.75;exitY=1;exitDx=0;exitDy=0;entryX=0;entryY=0.25;entryDx=0;entryDy=0;endArrow=classicThin;endFill=1;" edge="1" parent="1" source="NvnObT9T2hqpzoCI4MVh-8" target="NvnObT9T2hqpzoCI4MVh-5">
          <mxGeometry relative="1" as="geometry" />
        </mxCell>
        <mxCell id="NvnObT9T2hqpzoCI4MVh-7" style="edgeStyle=orthogonalEdgeStyle;rounded=0;orthogonalLoop=1;jettySize=auto;html=1;exitX=1;exitY=0.5;exitDx=0;exitDy=0;entryX=0;entryY=0.5;entryDx=0;entryDy=0;endArrow=classicThin;endFill=1;" edge="1" parent="1" source="NvnObT9T2hqpzoCI4MVh-8" target="NvnObT9T2hqpzoCI4MVh-11">
          <mxGeometry relative="1" as="geometry" />
        </mxCell>
        <mxCell id="NvnObT9T2hqpzoCI4MVh-8" value="Verificão" style="whiteSpace=wrap;html=1;aspect=fixed;align=center;verticalAlign=middle;fontFamily=Helvetica;fontSize=12;fillColor=none;rounded=1;glass=0;rotation=0;" vertex="1" parent="1">
          <mxGeometry x="225" y="20" width="70" height="30" as="geometry" />
        </mxCell>
        <mxCell id="NvnObT9T2hqpzoCI4MVh-9" style="edgeStyle=orthogonalEdgeStyle;rounded=0;orthogonalLoop=1;jettySize=auto;html=1;exitX=0.5;exitY=1;exitDx=0;exitDy=0;entryX=0.5;entryY=0;entryDx=0;entryDy=0;endArrow=classicThin;endFill=1;" edge="1" parent="1" source="NvnObT9T2hqpzoCI4MVh-11" target="NvnObT9T2hqpzoCI4MVh-5">
          <mxGeometry relative="1" as="geometry" />
        </mxCell>
        <mxCell id="NvnObT9T2hqpzoCI4MVh-10" style="edgeStyle=orthogonalEdgeStyle;rounded=0;orthogonalLoop=1;jettySize=auto;html=1;exitX=1;exitY=0.5;exitDx=0;exitDy=0;entryX=0;entryY=0.5;entryDx=0;entryDy=0;endArrow=classicThin;endFill=1;" edge="1" parent="1" source="NvnObT9T2hqpzoCI4MVh-11" target="NvnObT9T2hqpzoCI4MVh-13">
          <mxGeometry relative="1" as="geometry" />
        </mxCell>
        <mxCell id="NvnObT9T2hqpzoCI4MVh-11" value="Aprovação" style="whiteSpace=wrap;html=1;aspect=fixed;align=center;verticalAlign=middle;fontFamily=Helvetica;fontSize=12;fillColor=none;rounded=1;glass=0;rotation=0;" vertex="1" parent="1">
          <mxGeometry x="315" y="20" width="70" height="30" as="geometry" />
        </mxCell>
        <mxCell id="NvnObT9T2hqpzoCI4MVh-12" style="edgeStyle=orthogonalEdgeStyle;rounded=0;orthogonalLoop=1;jettySize=auto;html=1;exitX=1;exitY=0.5;exitDx=0;exitDy=0;endArrow=classicThin;endFill=1;" edge="1" parent="1" source="NvnObT9T2hqpzoCI4MVh-13" target="NvnObT9T2hqpzoCI4MVh-16">
          <mxGeometry relative="1" as="geometry" />
        </mxCell>
        <mxCell id="NvnObT9T2hqpzoCI4MVh-13" value="Emessão" style="whiteSpace=wrap;html=1;aspect=fixed;align=center;verticalAlign=middle;fontFamily=Helvetica;fontSize=12;fillColor=none;rounded=1;glass=0;rotation=0;" vertex="1" parent="1">
          <mxGeometry x="405" y="20" width="70" height="30" as="geometry" />
        </mxCell>
        <mxCell id="NvnObT9T2hqpzoCI4MVh-14" style="edgeStyle=orthogonalEdgeStyle;rounded=0;orthogonalLoop=1;jettySize=auto;html=1;exitX=0.5;exitY=1;exitDx=0;exitDy=0;entryX=1;entryY=0.25;entryDx=0;entryDy=0;fontFamily=Helvetica;fontSize=12;fontColor=default;endArrow=classicThin;endFill=1;" edge="1" parent="1" source="NvnObT9T2hqpzoCI4MVh-16" target="NvnObT9T2hqpzoCI4MVh-5">
          <mxGeometry relative="1" as="geometry" />
        </mxCell>
        <mxCell id="NvnObT9T2hqpzoCI4MVh-15" style="edgeStyle=orthogonalEdgeStyle;rounded=0;orthogonalLoop=1;jettySize=auto;html=1;exitX=1;exitY=0.5;exitDx=0;exitDy=0;entryX=0;entryY=0.5;entryDx=0;entryDy=0;endArrow=classicThin;endFill=1;" edge="1" parent="1" source="NvnObT9T2hqpzoCI4MVh-16" target="NvnObT9T2hqpzoCI4MVh-19">
          <mxGeometry relative="1" as="geometry" />
        </mxCell>
        <mxCell id="NvnObT9T2hqpzoCI4MVh-16" value="Comentários Cliente" style="whiteSpace=wrap;html=1;aspect=fixed;align=center;verticalAlign=middle;fontFamily=Helvetica;fontSize=12;fillColor=none;rounded=1;glass=0;rotation=0;" vertex="1" parent="1">
          <mxGeometry x="495" y="20" width="70" height="30" as="geometry" />
        </mxCell>
        <mxCell id="NvnObT9T2hqpzoCI4MVh-17" style="edgeStyle=orthogonalEdgeStyle;rounded=0;orthogonalLoop=1;jettySize=auto;html=1;exitX=0.5;exitY=1;exitDx=0;exitDy=0;entryX=1;entryY=0.5;entryDx=0;entryDy=0;fontFamily=Helvetica;fontSize=12;fontColor=default;endArrow=classicThin;endFill=1;" edge="1" parent="1" source="NvnObT9T2hqpzoCI4MVh-19" target="NvnObT9T2hqpzoCI4MVh-5">
          <mxGeometry relative="1" as="geometry" />
        </mxCell>
        <mxCell id="NvnObT9T2hqpzoCI4MVh-18" style="edgeStyle=orthogonalEdgeStyle;rounded=0;orthogonalLoop=1;jettySize=auto;html=1;exitX=1;exitY=0.5;exitDx=0;exitDy=0;entryX=0;entryY=0.5;entryDx=0;entryDy=0;endArrow=classicThin;endFill=1;" edge="1" parent="1" source="NvnObT9T2hqpzoCI4MVh-19" target="NvnObT9T2hqpzoCI4MVh-21">
          <mxGeometry relative="1" as="geometry" />
        </mxCell>
        <mxCell id="NvnObT9T2hqpzoCI4MVh-19" value="Análise Cliente" style="whiteSpace=wrap;html=1;aspect=fixed;align=center;verticalAlign=middle;fontFamily=Helvetica;fontSize=12;fillColor=none;rounded=1;glass=0;rotation=0;" vertex="1" parent="1">
          <mxGeometry x="585" y="20" width="70" height="30" as="geometry" />
        </mxCell>
        <mxCell id="NvnObT9T2hqpzoCI4MVh-20" style="edgeStyle=orthogonalEdgeStyle;rounded=0;orthogonalLoop=1;jettySize=auto;html=1;exitX=1;exitY=0.5;exitDx=0;exitDy=0;entryX=0;entryY=0.5;entryDx=0;entryDy=0;endArrow=classicThin;endFill=1;" edge="1" parent="1" source="NvnObT9T2hqpzoCI4MVh-21" target="NvnObT9T2hqpzoCI4MVh-24">
          <mxGeometry relative="1" as="geometry" />
        </mxCell>
        <mxCell id="NvnObT9T2hqpzoCI4MVh-21" value="Comentários Proprietário" style="whiteSpace=wrap;html=1;aspect=fixed;align=center;verticalAlign=middle;fontFamily=Helvetica;fontSize=12;fillColor=none;rounded=1;glass=0;rotation=0;" vertex="1" parent="1">
          <mxGeometry x="675" y="20" width="70" height="30" as="geometry" />
        </mxCell>
        <mxCell id="NvnObT9T2hqpzoCI4MVh-22" style="edgeStyle=orthogonalEdgeStyle;rounded=0;orthogonalLoop=1;jettySize=auto;html=1;exitX=0.5;exitY=1;exitDx=0;exitDy=0;entryX=1;entryY=0.75;entryDx=0;entryDy=0;strokeWidth=1;endArrow=classicThin;endFill=1;startSize=6;flowAnimation=0;shadow=0;" edge="1" parent="1" source="NvnObT9T2hqpzoCI4MVh-24" target="NvnObT9T2hqpzoCI4MVh-5">
          <mxGeometry relative="1" as="geometry" />
        </mxCell>
        <mxCell id="NvnObT9T2hqpzoCI4MVh-23" style="edgeStyle=orthogonalEdgeStyle;rounded=0;orthogonalLoop=1;jettySize=auto;html=1;exitX=1;exitY=0.5;exitDx=0;exitDy=0;entryX=0;entryY=0.5;entryDx=0;entryDy=0;endArrow=classicThin;endFill=1;" edge="1" parent="1" source="NvnObT9T2hqpzoCI4MVh-24" target="NvnObT9T2hqpzoCI4MVh-26">
          <mxGeometry relative="1" as="geometry" />
        </mxCell>
        <mxCell id="NvnObT9T2hqpzoCI4MVh-24" value="Análise Técnica" style="whiteSpace=wrap;html=1;aspect=fixed;align=center;verticalAlign=middle;fontFamily=Helvetica;fontSize=12;fillColor=none;rounded=1;glass=0;rotation=0;" vertex="1" parent="1">
          <mxGeometry x="765" y="20" width="70" height="30" as="geometry" />
        </mxCell>
        <mxCell id="NvnObT9T2hqpzoCI4MVh-25" value="" style="edgeStyle=orthogonalEdgeStyle;rounded=0;orthogonalLoop=1;jettySize=auto;html=1;fontFamily=Helvetica;fontSize=12;fontColor=default;endArrow=classicThin;endFill=1;" edge="1" parent="1" source="NvnObT9T2hqpzoCI4MVh-26" target="NvnObT9T2hqpzoCI4MVh-28">
          <mxGeometry relative="1" as="geometry" />
        </mxCell>
        <mxCell id="NvnObT9T2hqpzoCI4MVh-26" value="Revisão Aprovado" style="whiteSpace=wrap;html=1;aspect=fixed;align=center;verticalAlign=middle;fontFamily=Helvetica;fontSize=12;fillColor=none;rounded=1;glass=0;rotation=0;" vertex="1" parent="1">
          <mxGeometry x="855" y="20" width="70" height="30" as="geometry" />
        </mxCell>
        <mxCell id="NvnObT9T2hqpzoCI4MVh-27" style="edgeStyle=orthogonalEdgeStyle;rounded=0;orthogonalLoop=1;jettySize=auto;html=1;exitX=0.5;exitY=1;exitDx=0;exitDy=0;entryX=0.5;entryY=0;entryDx=0;entryDy=0;endArrow=classicThin;endFill=1;" edge="1" parent="1" source="NvnObT9T2hqpzoCI4MVh-28" target="NvnObT9T2hqpzoCI4MVh-29">
          <mxGeometry relative="1" as="geometry" />
        </mxCell>
        <mxCell id="NvnObT9T2hqpzoCI4MVh-28" value="Emissão Aprovado" style="whiteSpace=wrap;html=1;aspect=fixed;align=center;verticalAlign=middle;fontFamily=Helvetica;fontSize=12;fillColor=none;rounded=1;glass=0;rotation=0;" vertex="1" parent="1">
          <mxGeometry x="945" y="20" width="70" height="30" as="geometry" />
        </mxCell>
        <mxCell id="NvnObT9T2hqpzoCI4MVh-29" value="Postagem Concluída" style="whiteSpace=wrap;html=1;aspect=fixed;align=center;verticalAlign=middle;fontFamily=Helvetica;fontSize=12;fillColor=none;rounded=1;glass=0;rotation=0;" vertex="1" parent="1">
          <mxGeometry x="945" y="69" width="70" height="30" as="geometry" />
        </mxCell>
      </root>
    </mxGraphModel>
  </diagram>
</mxfile>
